<svg width="24" height="24" viewBox="0 0 24 24" fill="none" xmlns="http://www.w3.org/2000/svg">
  <path
    d="M12.6455 6.64661C12.8408 6.45151 13.1573 6.4514 13.3525 6.64661L18.3535 11.6476L18.418 11.7267C18.5457 11.9207 18.5241 12.1839 18.3535 12.3546L13.3525 17.3566L13.2734 17.42C13.0795 17.548 12.8163 17.527 12.6455 17.3566C12.4747 17.1858 12.453 16.9217 12.5811 16.7277L12.6455 16.6495L16.7949 12.5001H6C5.7239 12.5001 5.50006 12.2762 5.5 12.0001C5.5 11.724 5.72386 11.5001 6 11.5001H16.793L12.6455 7.35364C12.4503 7.1584 12.4503 6.84187 12.6455 6.64661Z"
    fill="currentColor" />
</svg>